<?xml version="1.0" encoding="iso-8859-1"?>
<!-- Generator: Adobe Illustrator 16.0.0, SVG Export Plug-In . SVG Version: 6.00 Build 0)  -->
<!DOCTYPE svg PUBLIC "-//W3C//DTD SVG 1.1//EN" "http://www.w3.org/Graphics/SVG/1.1/DTD/svg11.dtd">
<svg version="1.1" id="Capa_1" xmlns="http://www.w3.org/2000/svg" xmlns:xlink="http://www.w3.org/1999/xlink" x="0px" y="0px"
	 width="39.769px" height="39.769px" viewBox="0 0 39.769 39.769" style="enable-background:new 0 0 39.769 39.769;"
	 xml:space="preserve">
<g>
	<g>
		<path d="M36.384,23.28v1.896c0,0.46-0.211,0.896-0.571,1.181c-0.269,0.211-0.597,0.319-0.929,0.319
			c-0.117,0-0.235-0.014-0.353-0.041l-11.886-2.858v11.457l3.271,2.309c0.266,0.188,0.424,0.492,0.424,0.816v0.41
			c0,0.291-0.127,0.565-0.346,0.758c-0.185,0.156-0.416,0.242-0.654,0.242c-0.049,0-0.096-0.003-0.144-0.011l-5.314-0.766
			l-5.317,0.765c-0.285,0.041-0.578-0.045-0.797-0.232c-0.219-0.188-0.345-0.466-0.345-0.757v-0.409
			c0-0.326,0.157-0.632,0.423-0.817l3.271-2.31V23.774L5.233,26.632c-0.445,0.106-0.918,0.005-1.279-0.277
			c-0.359-0.285-0.57-0.721-0.57-1.181v-1.896c0-0.545,0.296-1.047,0.771-1.312l12.963-7.207V2.767C17.118,1.242,18.36,0,19.885,0
			c1.524,0,2.767,1.24,2.767,2.767V14.76l12.964,7.207C36.087,22.233,36.384,22.735,36.384,23.28z"/>
	</g>
</g>
<g>
</g>
<g>
</g>
<g>
</g>
<g>
</g>
<g>
</g>
<g>
</g>
<g>
</g>
<g>
</g>
<g>
</g>
<g>
</g>
<g>
</g>
<g>
</g>
<g>
</g>
<g>
</g>
<g>
</g>
</svg>
