<?xml version="1.0" encoding="UTF-8" standalone="no"?>
<!-- Generator: Adobe Illustrator 18.1.1, SVG Export Plug-In . SVG Version: 6.00 Build 0)  -->

<svg
   xmlns:dc="http://purl.org/dc/elements/1.1/"
   xmlns:cc="http://creativecommons.org/ns#"
   xmlns:rdf="http://www.w3.org/1999/02/22-rdf-syntax-ns#"
   xmlns:svg="http://www.w3.org/2000/svg"
   xmlns="http://www.w3.org/2000/svg"
   xmlns:sodipodi="http://sodipodi.sourceforge.net/DTD/sodipodi-0.dtd"
   xmlns:inkscape="http://www.inkscape.org/namespaces/inkscape"
   version="1.1"
   id="Capa_1"
   x="0px"
   y="0px"
   viewBox="0 0 40 40"
   xml:space="preserve"
   inkscape:version="0.48.4 r9939"
   width="100%"
   height="100%"
   sodipodi:docname="x2.svg"><metadata
     id="metadata3203"><rdf:RDF><cc:Work
         rdf:about=""><dc:format>image/svg+xml</dc:format><dc:type
           rdf:resource="http://purl.org/dc/dcmitype/StillImage" /><dc:title></dc:title></cc:Work></rdf:RDF></metadata><defs
     id="defs3201" /><sodipodi:namedview
     pagecolor="#ffffff"
     bordercolor="#666666"
     borderopacity="1"
     objecttolerance="10"
     gridtolerance="10"
     guidetolerance="10"
     inkscape:pageopacity="0"
     inkscape:pageshadow="2"
     inkscape:window-width="1301"
     inkscape:window-height="744"
     id="namedview3199"
     showgrid="false"
     inkscape:zoom="12.536436"
     inkscape:cx="20.0266"
     inkscape:cy="18.895266"
     inkscape:window-x="65"
     inkscape:window-y="24"
     inkscape:window-maximized="1"
     inkscape:current-layer="Capa_1" /><g
     id="Close"
     transform="matrix(0.18780908,0,0,0.18780908,-4.695227e-5,1.4042798e-4)"><path
       style="fill-rule:evenodd"
       d="M 131.804,106.491 207.74,30.555 c 6.99,-6.99 6.99,-18.323 0,-25.312 -6.99,-6.99 -18.322,-6.99 -25.312,0 L 106.491,81.18 30.554,5.242 c -6.99,-6.99 -18.322,-6.99 -25.312,0 -6.989,6.99 -6.989,18.323 0,25.312 L 81.179,106.49 5.242,182.427 c -6.989,6.99 -6.989,18.323 0,25.312 6.99,6.99 18.322,6.99 25.312,0 l 75.937,-75.937 75.937,75.937 c 6.989,6.99 18.322,6.99 25.312,0 6.99,-6.99 6.99,-18.322 0,-25.312 l -75.936,-75.936 z"
       id="path3167"
       inkscape:connector-curvature="0" /></g><g
     id="g3169"
     transform="translate(0,-172.982)" /><g
     id="g3171"
     transform="translate(0,-172.982)" /><g
     id="g3173"
     transform="translate(0,-172.982)" /><g
     id="g3175"
     transform="translate(0,-172.982)" /><g
     id="g3177"
     transform="translate(0,-172.982)" /><g
     id="g3179"
     transform="translate(0,-172.982)" /><g
     id="g3181"
     transform="translate(0,-172.982)" /><g
     id="g3183"
     transform="translate(0,-172.982)" /><g
     id="g3185"
     transform="translate(0,-172.982)" /><g
     id="g3187"
     transform="translate(0,-172.982)" /><g
     id="g3189"
     transform="translate(0,-172.982)" /><g
     id="g3191"
     transform="translate(0,-172.982)" /><g
     id="g3193"
     transform="translate(0,-172.982)" /><g
     id="g3195"
     transform="translate(0,-172.982)" /><g
     id="g3197"
     transform="translate(0,-172.982)" /></svg>